<svg width="194" height="136" viewBox="0 0 194 136" xmlns="http://www.w3.org/2000/svg"><title>pic</title><defs><linearGradient x1="73.206%" y1="129.954%" x2="73.206%" y2="-26.84%" id="a"><stop stop-color="#005AD4" offset="0%"/><stop stop-color="#6CCBFF" offset="100%"/></linearGradient><linearGradient x1="63.939%" y1="34.426%" x2="63.939%" y2="126.178%" id="b"><stop stop-color="#30C185" offset="0%"/><stop stop-color="#0EA678" offset="100%"/></linearGradient><linearGradient x1="58.095%" y1="128.273%" x2="58.095%" y2="-15.378%" id="c"><stop stop-color="#038DEE" offset="0%"/><stop stop-color="#6DE6FF" offset="97.515%"/></linearGradient><linearGradient x1="50%" y1="-21.466%" x2="50%" y2="119.298%" id="d"><stop stop-color="#34F3CC" offset="0%"/><stop stop-color="#0B7" offset="100%"/></linearGradient><linearGradient x1="19.631%" y1="-192.458%" x2="19.631%" y2="220.591%" id="e"><stop stop-color="#8FFFF7" offset="0%"/><stop stop-color="#2FC185" offset="100%"/></linearGradient><linearGradient x1="50%" y1="-136.148%" x2="50%" y2="246.988%" id="f"><stop stop-color="#5DE696" offset="0%"/><stop stop-color="#0EA678" offset="100%"/></linearGradient></defs><g fill="none" fill-rule="evenodd"><path d="M15.962 21.22H63.09a4 4 0 0 1 2.751 1.097L82.866 38.45h51.45a4 4 0 0 1 4 4v80.87a4 4 0 0 1-4 4H15.962a4 4 0 0 1-4-4v-98.1a4 4 0 0 1 4-4z" fill="url(#a)" transform="translate(55.55)"/><path d="M79.444 60.943h-31.83V16.397C47.614 7.407 54.74 0 64.011 0c8.308 0 15.433 7.407 15.433 16.397v44.546z" fill="url(#b)" transform="translate(55.55)"/><path d="M4.387 35.688h47.129a4 4 0 0 1 2.752 1.097l17.023 16.14h51.45a4 4 0 0 1 4 4v66.394a4 4 0 0 1-4 4H4.388a4 4 0 0 1-4-4V39.688a4 4 0 0 1 4-4z" fill="url(#c)" transform="translate(55.55)"/><path d="M16.397 0h78.128c12.378 0 22.184 9.781 22.184 22.184l.164 112.913H52.25c-10.87 0-19.96-9.081-20.255-20.255l-.164-90.729H16.397V0z" fill="url(#d)" transform="matrix(-1 0 0 1 135.029 0)"/><path d="M52.085 134.84c7.722-1.226 13.634-8.078 13.634-16.347v-11.43h68.352v11.43c0 9.136-7.216 16.542-16.117 16.542l-65.869-.195z" fill="url(#e)" transform="matrix(-1 0 0 1 135.029 0)"/><path d="M31.83 27.972H0V16.397C0 7.407 7.125 0 16.397 0 24.704 0 31.83 7.407 31.83 16.397v11.575z" fill="url(#f)" transform="matrix(-1 0 0 1 135.029 0)"/><g><path stroke="#FFF" stroke-width="2" d="M37.646 44.404h8.61v8.61h-8.61zm35.013 0h8.61v8.61h-8.61zm-35.013 31.83h8.61v8.61h-8.61z"/><path fill="#FFF" d="M47.256 80.54H72.72v1.06H47.256zm30.238-28.117v23.342h-1.061V52.423zm-34.482.531v23.342h-1.061V52.954zm4.244-4.244H72.72v1.06H47.256z"/><path stroke="#FFF" stroke-width="2" d="M72.659 76.234h8.61v8.61h-8.61z"/></g></g></svg>