<svg id="图层_1" data-name="图层 1" xmlns="http://www.w3.org/2000/svg" viewBox="0 0 5210 1631.22"><defs><style>.cls-1{fill:#fff}.cls-2{fill:url(#未命名的渐变)}.cls-3{mask:url(#mask)}.cls-4{fill:url(#未命名的渐变_3)}.cls-5{mask:url(#mask-2)}.cls-6{fill:url(#未命名的渐变_4)}</style><linearGradient id="未命名的渐变" x1="2230.79" y1="948.45" x2="2229.42" y2="948.95" gradientTransform="matrix(5210 0 0 -564.94 -11616070 536307.21)" gradientUnits="userSpaceOnUse"><stop offset="0" stop-color="#1679ff"/><stop offset=".38" stop-color="#25a8f4"/><stop offset=".73" stop-color="#138bfc"/><stop offset="1" stop-color="#0c9ff4"/></linearGradient><mask id="mask" x="0" y="0" width="5210" height="1037.72" maskUnits="userSpaceOnUse"><g transform="translate(0 379.99)"><g id="mask-3"><path id="path-2" class="cls-1" d="M2097.6.72L5210 242.66V565H0V409L2037.7 4.28a220 220 0 0 1 59.9-3.56z"/></g></g></mask><linearGradient id="未命名的渐变_3" x1="2228.92" y1="946.87" x2="2230.89" y2="947.26" gradientTransform="matrix(0 1165.76 728.6 0 -687355.73 -2598783.74)" gradientUnits="userSpaceOnUse"><stop offset="0" stop-color="#1679ff"/><stop offset="1" stop-color="#00ffe6"/></linearGradient><mask id="mask-2" x="0" y="349.38" width="5210" height="1281.84" maskUnits="userSpaceOnUse"><g transform="translate(0 379.99)"><g id="mask-3-2" data-name="mask-3"><path id="path-2-2" data-name="path-2" class="cls-1" d="M2097.6.72L5210 242.66V565H0V409L2037.7 4.28a220 220 0 0 1 59.9-3.56z"/></g></g></mask><linearGradient id="未命名的渐变_4" x1="2228.97" y1="947.4" x2="2229.53" y2="947.44" gradientTransform="rotate(-45 576377.275 -4298953.189) scale(1439.99 -900.01)" gradientUnits="userSpaceOnUse"><stop offset="0" stop-color="#1679ff"/><stop offset="1" stop-color="#0ea6f6"/></linearGradient></defs><title>bg</title><g id="FD_homepage_1920" data-name="FD homepage 1920"><g id="bottom"><g id="Group-7"><path id="Mask-3-3" data-name="Mask" class="cls-2" d="M2097.6.72L5210 242.66V565H0V409L2037.7 4.28a220 220 0 0 1 59.9-3.56z" transform="translate(0 379.99)"/><g id="Mask-4" data-name="Mask"><path id="path-2-3" data-name="path-2" class="cls-2" d="M2097.6.72L5210 242.66V565H0V409L2037.7 4.28a220 220 0 0 1 59.9-3.56z" transform="translate(0 379.99)"/></g><g class="cls-3"><rect id="Rectangle-15-Copy-2" class="cls-4" x="2237.37" y="-444.01" width="728.6" height="1165.76" rx="364.3" ry="364.3" transform="rotate(-45 3060.358 328.858)"/></g><g class="cls-5"><path id="Rectangle-15-Copy" class="cls-6" d="M2312.59 101.2L2694.43 483c175.74 175.73 175.74 460.66 0 636.39-175.73 175.74-460.66 175.74-636.39 0l-381.84-381.8c-175.74-175.73-175.74-460.66 0-636.39 175.73-175.74 460.66-175.74 636.39 0z" transform="translate(0 379.99)"/></g></g></g></g></svg>