<svg width="2587" height="1250" viewBox="0 0 2587 1250" xmlns="http://www.w3.org/2000/svg" xmlns:xlink="http://www.w3.org/1999/xlink"><title>Group 4</title><defs><linearGradient x1="58.406%" y1="-9.254%" x2="-9.908%" y2="63.303%" id="a"><stop stop-color="#48BAFD" offset="0%"/><stop stop-color="#318DFF" offset="100%"/></linearGradient><linearGradient x1="71.758%" y1="23.93%" x2="-109.787%" y2="106.694%" id="c"><stop stop-color="#1679FF" offset="0%"/><stop stop-color="#00FFE6" offset="100%"/></linearGradient><path d="M210.565 1249.897c-85.733 2.666-167.295-46.712-198.227-127.532-38.47-100.514 16.027-211.654 121.722-248.239l769.644-265.442C915.537 604.602 1476.636 402.02 2587 .94v1248.956H210.565z" id="b"/><linearGradient x1="21.287%" y1="50%" x2="124.191%" y2="5.199%" id="e"><stop stop-color="#2984FF" offset="0%"/><stop stop-color="#92FFF4" offset="100%"/></linearGradient><linearGradient x1="50%" y1="15.97%" x2="50%" y2="68.587%" id="f"><stop stop-color="#1679FF" offset="0%"/><stop stop-color="#0DAFF5" offset="100%"/></linearGradient><path d="M210.565 1249.897c-85.733 2.666-167.295-46.712-198.227-127.532-38.47-100.514 16.027-211.654 121.722-248.239l769.644-265.442C915.537 604.602 1476.636 402.02 2587 .94v1248.956H210.565z" id="g"/></defs><g fill="none" fill-rule="evenodd"><path d="M378.884 746.567L220.939 1068.7l593.7-204.777c69.225-23.963 104.453-95.812 79.674-160.559-25.092-65.567-102.297-99.806-172.314-75.57L378.884 746.568z" stroke="url(#a)" stroke-width="60" opacity=".1" transform="scale(-1 1) rotate(15 0 -3300.455)"/><g><mask id="d" fill="#fff"><use xlink:href="#b"/></mask><use fill="url(#c)" xlink:href="#b"/><g mask="url(#d)"><path d="M210.565 1249.897c-85.733 2.666-167.295-46.712-198.227-127.532-38.47-100.514 16.027-211.654 121.722-248.239l769.644-265.442C915.537 604.602 1476.636 402.02 2587 .94v1248.956H210.565z" fill="url(#c)"/><path fill="url(#e)" opacity=".4" transform="rotate(45 382.27 873.19)" d="M163.256 236.626h452.238l-14.21 1273.127H149.045z"/><path fill="url(#e)" opacity=".103" transform="rotate(45 161.086 908.58)" d="M17.584 390.082h301.214l-14.211 1036.995H3.373z"/><path fill="url(#f)" opacity=".8" transform="scale(-1 1) rotate(45 0 -2710.779)" d="M937.714-101.707H2167.78l-72.139 2105.023H865.576z"/></g></g></g></svg>