<svg width="196" height="162" viewBox="0 0 196 162" xmlns="http://www.w3.org/2000/svg"><title>pic</title><defs><linearGradient x1="33.465%" y1="179.993%" x2="76.175%" y2="0%" id="a"><stop stop-color="#3BABFF" offset="0%"/><stop stop-color="#CDE4FF" offset="100%"/></linearGradient><linearGradient x1="50%" y1="137.511%" x2="74.195%" y2="0%" id="b"><stop stop-color="#62BBFF" offset="0%"/><stop stop-color="#B8D9FF" offset="100%"/></linearGradient><linearGradient x1="73.207%" y1="137.045%" x2="73.207%" y2="0%" id="c"><stop stop-color="#FFAD82" offset="0%"/><stop stop-color="#FF8080" offset="100%"/></linearGradient><linearGradient x1="50%" y1="154.332%" x2="50%" y2="-8.957%" id="d"><stop stop-color="#FFE4AA" offset="1.929%"/><stop stop-color="#FFBD9F" offset="100%"/></linearGradient><linearGradient x1="50%" y1="132.473%" x2="50%" y2="-128.087%" id="e"><stop stop-color="#FFA677" offset="0%"/><stop stop-color="#FF4747" offset="100%"/></linearGradient><linearGradient x1="33.465%" y1="179.993%" x2="76.175%" y2="0%" id="f"><stop stop-color="#84CAFF" offset="0%"/><stop stop-color="#CDE4FF" offset="100%"/></linearGradient></defs><g fill="none" fill-rule="evenodd"><path d="M25.505 62.084C25.8 49.788 35.86 39.91 48.225 39.91c12.367 0 22.427 9.877 22.721 22.173h.637c8.836 0 16 7.163 16 16v3.476c0 8.837-7.164 16-16 16H16c-8.837 0-16-7.163-16-16v-3.476c0-8.837 7.163-16 16-16h9.505z" fill="url(#a)" opacity=".498" transform="matrix(-1 0 0 1 87.583 0)"/><path d="M29.042 137.61c0-8.572 6.949-15.521 15.52-15.521 8.573 0 15.522 6.949 15.522 15.52 6.735 0 12.195 5.46 12.195 12.196 0 6.735-5.46 12.195-12.195 12.195H23.499c-6.735 0-12.195-5.46-12.195-12.195s5.46-12.195 12.195-12.195h5.543z" fill="url(#b)"/><g transform="translate(49.413)"><path d="M.693 57.646C.693 22.748 27.993 0 61.668 0c33.676 0 60.975 22.748 60.975 57.646 0 19.423-14.969 41.595-44.906 66.515H45.622c-.003 0-44.93-37.372-44.93-66.515z" fill="url(#c)"/><path d="M26.192 57.646C26.192 22.748 42.075 0 61.668 0s35.477 22.748 35.477 57.646c0 19.423-8.71 41.595-26.128 66.515H52.332c-.002 0-26.14-37.372-26.14-66.515z" fill="url(#d)"/><rect fill="url(#e)" x="47.256" y="133.037" width="28.825" height="20.754" rx="4"/></g><path d="M143.022 104.234c.294-10.458 8.864-18.846 19.394-18.846 10.56 0 19.15 8.436 19.396 18.937 7.485.825 13.309 7.17 13.309 14.876 0 8.266-6.701 14.967-14.967 14.967h-44.346c-8.265 0-14.966-6.701-14.966-14.967 0-8.266 6.7-14.967 14.966-14.967h7.214z" fill="url(#f)"/></g></svg>