<svg width="164" height="158" viewBox="0 0 164 158" xmlns="http://www.w3.org/2000/svg"><defs><linearGradient x1="58.12%" y1="160.262%" x2="113.007%" y2="-72.629%" id="a"><stop stop-color="#006CFF" offset="0%"/><stop stop-color="#92D9FF" offset="100%"/></linearGradient><linearGradient x1="50%" y1="-21.555%" x2="50%" y2="104.548%" id="b"><stop stop-color="#4D61F3" offset="0%"/><stop stop-color="#3A8BFB" offset="100%"/></linearGradient><linearGradient x1="151.49%" y1="0%" x2="0%" y2="117.072%" id="c"><stop stop-color="#FF7F22" offset="0%"/><stop stop-color="#FFE054" offset="100%"/></linearGradient><linearGradient x1="50%" y1="-14.787%" x2="50%" y2="119.298%" id="d"><stop stop-color="#33DB77" offset="0%"/><stop stop-color="#0BD4DC" offset="100%"/></linearGradient><linearGradient x1="73.207%" y1="137.785%" x2="73.207%" y2="-28.058%" id="e"><stop stop-color="#FF9862" offset="0%"/><stop stop-color="#FA5858" offset="100%"/></linearGradient></defs><g fill="none" fill-rule="evenodd"><g transform="translate(30 35)"><path fill="url(#a)" opacity=".1" d="M.865.865h102.876v120.809H.865z"/><rect fill="#F6FCFF" x="11.247" y="12.191" width="83.056" height="84" rx="4"/><rect fill="#F6FCFF" transform="matrix(1 0 0 -1 0 213.146)" x="11.247" y="102.798" width="46.247" height="7.551" rx="3.775"/></g><path d="M25.562 59.67H8.876V42.852c4.757 0 8.612-3.885 8.612-8.679 0-4.793-3.855-8.679-8.612-8.679V8.679h16.686C25.562 3.886 29.418 0 34.174 0s8.612 3.886 8.612 8.68h16.686v16.815c-4.756 0-8.612 3.886-8.612 8.68 0 4.793 3.856 8.678 8.612 8.678V59.67H42.786c0 4.794-3.856 8.68-8.612 8.68s-8.612-3.886-8.612-8.68z" fill="url(#b)"/><path d="M76.158 59.67H59.472V42.852c4.756 0 8.612-3.885 8.612-8.679 0-4.793-3.856-8.679-8.612-8.679V8.679h16.686C76.158 3.886 80.013 0 84.77 0c4.756 0 8.612 3.886 8.612 8.68h16.685v16.815c-4.756 0-8.612 3.886-8.612 8.68 0 4.793 3.856 8.678 8.612 8.678V59.67H93.382c0 4.794-3.856 8.68-8.612 8.68-4.757 0-8.612-3.886-8.612-8.68z" fill="url(#c)" transform="rotate(90 84.77 34.174)"/><path d="M25.562 119.141H8.876v-16.816c4.757 0 8.612-3.886 8.612-8.679s-3.855-8.68-8.612-8.68V68.152h16.686c0-4.793 3.856-8.68 8.612-8.68s8.612 3.887 8.612 8.68h16.686v16.816c-4.756 0-8.612 3.886-8.612 8.68 0 4.792 3.856 8.678 8.612 8.678v16.816H42.786c0 4.793-3.856 8.68-8.612 8.68s-8.612-3.887-8.612-8.68z" fill="url(#d)" transform="rotate(90 34.174 93.646)"/><path d="M121.593 157.972h-16.384v-16.384a8.456 8.456 0 0 0 0-16.912v-16.384h16.384a8.456 8.456 0 1 1 16.912 0h16.384v16.384a8.456 8.456 0 0 0 0 16.912v16.384h-16.384a8.456 8.456 0 0 1-16.912 0z" fill="url(#e)" transform="rotate(90 130.049 133.132)"/></g></svg>