<svg width="2186" height="712" viewBox="0 0 2186 712" xmlns="http://www.w3.org/2000/svg" xmlns:xlink="http://www.w3.org/1999/xlink"><title>Group 4</title><defs><linearGradient x1="91.113%" y1="100.733%" x2="20.816%" y2="67.904%" id="b"><stop stop-color="#71C8FF" offset="0%"/><stop stop-color="#F5FFFD" stop-opacity=".25" offset="100%"/></linearGradient><path d="M309.457 890.755L891.35 224.783c66.746-76.39 182.78-84.208 259.17-17.462 56.402 49.28 77.232 127.872 52.643 198.618l-12.421 35.737 10.022 638.078c2.602 165.665-129.586 302.072-295.251 304.674a299.97 299.97 0 0 1-7.205.027l-460.859-3.83c-109.676-.911-197.847-90.56-196.936-200.237.063-7.515.552-15.02 1.465-22.48l19.57-159.86a200 200 0 0 1 47.91-107.293z" id="a"/><linearGradient x1="117.265%" y1="45.352%" x2="17.038%" y2="58.762%" id="d"><stop stop-color="#006CFF" offset="0%"/><stop stop-color="#11FFE7" offset="100%"/></linearGradient><path d="M2108.657 210.145l124.005 581.54c22.972 107.729-45.49 213.753-153.128 237.146L494.29 1373.348c-67.212 14.607-137.214-6.348-185.346-55.483l-42.959-43.853L2108.657 210.145z" id="c"/><linearGradient x1="113.534%" y1="76.52%" x2="-15.656%" y2="57.399%" id="f"><stop stop-color="#006CFF" offset="0%"/><stop stop-color="#11FFE7" offset="100%"/></linearGradient><path d="M229.205 821.336L868.428 129.77c66.217-71.639 177.971-76.034 249.61-9.818 54.993 50.831 71.957 130.814 42.331 199.592l172.192 701.284c26.339 107.27-39.269 215.582-146.54 241.921-1.213.298-2.429.585-3.648.86l-702.564 158.61c-107.746 24.323-214.81-43.303-239.134-151.048l-.195-.876-59.691-270.038c-14.14-63.97 3.946-130.81 48.416-178.921z" id="e"/></defs><g transform="translate(-159 -718)" fill="none" fill-rule="evenodd"><use fill="url(#b)" opacity=".314" transform="scale(-1 1) rotate(30 0 -1939.724)" xlink:href="#a"/><use fill="url(#d)" transform="scale(-1 1) rotate(30 0 -3876.794)" xlink:href="#c"/><use fill="url(#f)" transform="scale(-1 1) rotate(30 0 -2075.9)" xlink:href="#e"/></g></svg>