<svg width="2480" height="1325" viewBox="0 0 2480 1325" xmlns="http://www.w3.org/2000/svg" xmlns:xlink="http://www.w3.org/1999/xlink"><defs><linearGradient x1="58.406%" y1="-9.254%" x2="-9.908%" y2="63.303%" id="a"><stop stop-color="#48BAFD" offset="0%"/><stop stop-color="#318DFF" offset="100%"/></linearGradient><linearGradient x1="93.686%" y1="45.066%" x2="73.69%" y2="-59.025%" id="c"><stop stop-color="#006CFF" offset="0%"/><stop stop-color="#00FFE6" offset="100%"/></linearGradient><path d="M0 1181.474V12.57L2267.756 1.047c43.094-1.774 85.23 9.675 120.475 31.717 35.246 22.041 63.602 54.676 79.139 95.272 38.326 100.146-15.967 210.88-121.268 247.33l-820.737 283.087C934.68 860.685 426.225 1035.025 0 1181.473z" id="b"/><linearGradient x1="25.235%" y1="55.834%" x2="106.406%" y2="-2.551%" id="d"><stop stop-color="#01F0E9" offset="0%"/><stop stop-color="#4BA8FF" offset="100%"/></linearGradient><linearGradient x1="25.235%" y1="55.834%" x2="105.797%" y2="0%" id="f"><stop stop-color="#01F0E9" offset="0%"/><stop stop-color="#0086F8" offset="100%"/></linearGradient><path d="M744.883.831c85.413-2.656 166.67 46.54 197.487 127.066 38.326 100.146-15.967 210.88-121.268 247.33L.365 658.314 242.44 164.592l80.822-27.977V.83h421.621z" id="g"/><linearGradient x1="50%" y1="-53.095%" x2="50%" y2="77.939%" id="i"><stop stop-color="#0AC6F1" offset="0%"/><stop stop-color="#FFF" stop-opacity="0" offset="100%"/></linearGradient></defs><g fill="none" fill-rule="evenodd"><path d="M1737.38 157.404l-157.944 322.134c371.17-128.023 593.68-204.77 593.7-204.778 69.226-23.963 104.453-95.811 79.675-160.558-25.093-65.568-102.297-99.806-172.315-75.57l-343.115 118.772z" stroke="url(#a)" stroke-width="60" opacity=".1"/><g transform="translate(0 143)"><mask id="e" fill="#fff"><use xlink:href="#b"/></mask><use fill="url(#c)" xlink:href="#b"/><path d="M0 728.103l2030.26-679.31c110.878-38.38 233.478 15.99 273.834 121.441 40.31 105.33-16.794 221.794-127.544 260.131L0 1196.062V728.103z" fill="url(#d)" opacity=".2" mask="url(#e)"/><path d="M-12.529 977.235l2007.511-671.434c105.422-36.492 221.988 15.203 260.359 115.464 38.326 100.147-15.967 210.88-121.268 247.33-.049.018-715.582 240.57-2146.602 721.656V977.235z" fill="url(#f)" opacity=".35" mask="url(#e)"/></g><g transform="translate(1525 143.14)"><mask id="h" fill="#fff"><use xlink:href="#g"/></mask><g mask="url(#h)" fill="url(#i)"><path d="M595.797 84.687v93.809h68.494V84.687h41.857L628.14-19.955 550.135 84.687h45.662z"/></g></g></g></svg>