<?xml version="1.0" standalone="no"?><!DOCTYPE svg PUBLIC "-//W3C//DTD SVG 1.1//EN" "http://www.w3.org/Graphics/SVG/1.1/DTD/svg11.dtd"><svg t="1584201926102" class="icon" viewBox="0 0 1024 1024" version="1.1" xmlns="http://www.w3.org/2000/svg" p-id="2196" xmlns:xlink="http://www.w3.org/1999/xlink" width="200" height="200"><defs><style type="text/css"></style></defs><path d="M606.7 824.6c16.9-13.3 40.6-30.1 76.2-17 0 0-3.4 9.9 0 17s11.6 15.2-5.3 20.2l-2.3 7.6v10.5l126.3 47.8-1.3 8.5s-174.7 5-186.8 0-4.6-7.9-4.6-7.9l11.5-20.2 5.7-20.6 2-13.6-13.2-2.4 5.5-14.5-2.5-8.3z" fill="#EFC859" p-id="2197"></path><path d="M654.5 803c-15.6 4.7-5.6 22.5-2.8 25.6s-2.7 16.4-9.8 20.8 18.2 9.4 16.8 10.1-50.1 44.7 3 48.4 139.9 6.4 139.9 6.4-135.2 13.8-191.4 2.4l1-13.5 17.1-40.4-15.5-11.8 7.5-11.1-2.5-8.3-11.2-7.1 24.5-15.8z" fill="#C6951A" p-id="2198"></path><path d="M735.6 895.6c-19-7.6-58.6-24.5-67.5-21.4s-27.9 16.9-8.9 21.4 89.3 5.2 76.4 0z" fill="#FFEBBD" p-id="2199"></path><path d="M495.8 824.6c-16.9-13.3-40.6-30.1-76.2-17 0 0 3.4 9.9 0 17s-11.6 15.2 5.3 20.2l2.3 7.6v10.5l-126.3 47.8 1.3 8.5s174.7 5 186.8 0 4.6-7.9 4.6-7.9l-11.5-20.2-5.7-20.6-2-13.6 13.2-2.4-5.4-14.5 2.5-8.3z" fill="#EFC859" p-id="2200"></path><path d="M802.7 498.8c29.5 58.3 9.8 214.2-9.2 224s-37.3 80.7 37.7 81 40-48.4 52.4-55.3 21.8-34.8 12.5-44.3 5.9-137.5-8.1-240.5-85.3 35.1-85.3 35.1z" fill="#88BA6E" p-id="2201"></path><path d="M155.4 481.5c25.3-97.7 88.5-300.6 171.7-320.2 0 0 194.4 95.8 420.7-53.1 0 0 159.4 97.7 173.8 346.7l-101.5 48.5s27 173.1 19.5 211.1c0 0-179.6 136.7-519.6 53.3 0 0-37.2-147.8-22.1-187.7s10.6-49.5-35.1-48.8c-88.7 1.3-107.4-49.8-107.4-49.8z" fill="#5E5E5E" p-id="2202"></path><path d="M896.2 704.2c-9.3-9.6 5.8-137.5-8.2-240.5-0.2-1.8-0.5-3.4-0.8-5.1-26 7.9-67.1 44.8-67.1 44.8 8.9 62.6-4 212.2-7.4 233.2s4.2 24.5 11.4 45.8c4.1 12.2-1.6 17.5-10.1 19.7a93.7 93.7 0 0 0 17.3 1.5c75 0.3 40-48.4 52.4-55.3s21.7-34.5 12.5-44.1z" fill="#649147" p-id="2203"></path><path d="M747.7 108.2q-19.2 12.6-38.1 23c68.3 26.7 150.2 198 166.9 289.9 2.8 15.5-75.1 36.2-79.7 35.7s14.6 2.9 24.6 54.8l-1.2-8.1 101.4-48.6c-14.5-249-173.9-346.7-173.9-346.7z" fill="#545454" p-id="2204"></path><path d="M796.7 456.7c-51.2 193.4-344.2 312.5-470.8 312.5 336.2 80.5 513.8-54.7 513.8-54.7 7.5-38-19.5-211.1-19.5-211.1l28-13.4c-22.8-23.4-51.5-33.3-51.5-33.3zM355.9 355.9c10.2-43.5-35.8-99.9-30-72.6s-52 16-38.7 40.1-4.4 170.7-68.7 203.4a178 178 0 0 0 44.4 4.5c17.5-0.3 29 1 35.6 4.9 9.7-14.2-1.2-73.3-0.4-97.5s47.6-39.3 57.8-82.8z" fill="#545454" p-id="2205"></path><path d="M218.1 775.5c-14.8-2.4 2.9-10.2-7-19.1s-18.9-9.4-13.3-27-4.3-22.1-10.5-34.3-14.8-116.7-11.8-133.2 15.3 12 77.5 12c8.9 0-10.2 62.3 3.1 96.1s8.6 21.3 12.7 51.2S285 745 282 756.4s-17.9 46.7-61.7 41.2-2.2-22.1-2.2-22.1z" fill="#88BA6E" p-id="2206"></path><path d="M757.5 315.2c-11.1-37.6-40.5-39.5-37.7-74s53.6-24.5 60.4 22.7 0 119.9 0 119.9z" fill="#545454" p-id="2207"></path><path d="M796.7 464.7C786.4 406.9 757.5 335 757.5 335c-91.7 15-407.7 158.1-458.9 201.1 10.7 6.2 8.8 19.3-0.5 43.9-8 21.2-1.3 73 6.8 116.8 58.3-37.3 491.8-232.1 491.8-232.1z" fill="#88BA6E" p-id="2208"></path><path d="M448.1 803c15.6 4.7 5.6 22.5 2.8 25.6s2.7 16.4 9.8 20.8-18.2 9.4-16.8 10.1 50.1 44.7-3 48.4-139.9 6.4-139.9 6.4 135.2 13.8 191.4 2.4l-1-13.5-17.1-40.4 15.5-11.8-7.6-11 2.5-8.3 11.2-7.1-24.5-15.8z" fill="#C6951A" p-id="2209"></path><path d="M268.7 721.2c-4.1-30 0.6-17.3-12.7-51.2s5.8-96.1-3.1-96.1c-17.4 0-30.9-2.2-41.4-5.1 3 43.1 2.9 115.2 18.6 124.9s14.9 16.5 0 29.2 2.5 15.7 11.8 12.7 13.6 2.2 21.6 12-11.1 40-52.5 47.2l-2.6 0.5a75.6 75.6 0 0 0 11.9 2.3c43.8 5.5 58.7-29.8 61.7-41.2s-9.2-5.2-13.3-35.2z" fill="#649147" p-id="2210"></path><path d="M762.4 347.8c-25.4 13.3-46.6 25.8-49.7 30.2-16 22.5-6.7 59.7 6.6 57.2 6.8-1.3 34.7-15.5 62.4-30.8-7.1-23.3-14.6-44-19.3-56.6z" fill="#ABD195" p-id="2211"></path><path d="M287.2 566.9h-0.1c-157.2-2-175.3-67.8-176-70.6a5 5 0 0 1 0.1-2.6c34.8-120.3 71.2-213.9 108.3-278.4 26.6-46.2 52.8-76.6 78-90.4 18.6-10.1 29.7-7.2 31-6.9l1.4 0.7c12.4 8.5 59.6 36.6 146.1 39.9 53.9 2.1 138.6-5.8 235.7-55a5 5 0 0 1 3.6-0.4c1.5 0.4 36.3 10.2 78 57.4 24.2 27.4 45.8 61.9 64.2 102.5 22.9 50.6 40.8 110.9 53.4 179.2a5 5 0 0 1-3 5.5l-104 43.7a5 5 0 0 1-3.9-9.2l100.2-42c-12.3-65.9-29.8-124.1-51.9-172.9-18-39.7-39-73.3-62.6-100-34.6-39.1-64.1-51.2-71.4-53.8-51.7 25.9-130.7 55.4-222.5 55.4-5.4 0-10.7-0.1-16.2-0.3-87.3-3.3-136.3-31.6-150.5-41.1-1.6-0.2-6.8-0.5-14.8 2.5s-24.5 12.3-43.6 34.4C245 189.5 222.9 226 201 273c-27.1 58.3-54 133-79.8 221.9 1.4 3.8 7.4 16.5 26.1 29.4 36.5 25.1 93 31.6 135.6 32.5 2-13.8 8-58.9 10-107.8 3.1-76.3-4.7-126.9-22.7-146.4a5 5 0 0 1 7.3-6.8c47.3 51.2 15.9 258 14.6 266.8a5 5 0 0 1-4.9 4.3z" fill="#3D3D3D" p-id="2212"></path><path d="M298.5 419.9a5 5 0 0 1-4.2-7.8c14.3-21.6 26.5-49.6 31.6-73 7.9-35.8-1.2-52.1-10.1-59.5a5 5 0 1 1 6.4-7.7c34.5 28.4 9.4 102.3-19.5 145.8a5 5 0 0 1-4.2 2.2zM513 780.5q-9.9 0-19.8-0.3a624.5 624.5 0 0 1-205.1-41.4 5 5 0 0 1-3.1-3.5c-0.1-0.3-6.2-25.5-11.2-59.3-4.6-31.3-9.2-76.6-5-114.7a5 5 0 0 1 9.9 1.1c-7.3 64.6 11.7 152 15.3 168a614.5 614.5 0 0 0 199.4 39.8 654.8 654.8 0 0 0 167.3-16.7c84.2-19.4 141.5-49.7 153.6-56.4 2.2-97.5-21.9-292.1-73.8-410.5a5 5 0 0 1 9.2-4c53 120.9 77.3 320.2 74.6 417.6a5 5 0 0 1-2.5 4.2c-0.6 0.4-62.6 36.7-158.8 58.9a668.4 668.4 0 0 1-150 17.2zM819.4 700z" fill="#3D3D3D" p-id="2213"></path><path d="M214.5 802.6c-11.4 0-20.9-1.6-25.1-4.1-10.4-6.4-6.2-14.3-4.2-18.1a13 13 0 0 0 1.8-4.7c-0.7-1.5-5.7-4.4-8.4-5.9-6.1-3.5-11.9-6.8-11.9-12.5 0-3.3 1.8-5.6 3.3-7.7 3-4 6.8-9-2.7-26.2s-13.5-55.6-15.7-85.7c-2.5-35.2-3-75.6-1.2-102.9a5 5 0 1 1 10 0.6c-1.7 27-1.2 66.9 1.2 101.6 2.9 40.5 8.2 70.2 14.5 81.5 11.7 21.1 7.1 30.2 1.9 37.1l-1 1.3a48.5 48.5 0 0 0 6.5 4.1c6.3 3.6 13.5 7.6 13.5 14.4 0 3.8-1.6 7-3 9.5a13 13 0 0 0-1.4 3.4 6.2 6.2 0 0 0 2 1.6c4.5 2.7 33.4 5.2 56.2-3.2 12.6-4.7 20.5-11.6 23.4-20.5 5.7-17.8 1-20.3-5.1-23.5-4-2.1-9.5-5-10.5-12s1.1-12 3.1-17.9c4.5-13.5 3.2-15.9-1.4-18.6s-8.7-10.8-11.3-24.5c-2-10.6-3.3-24.4-3.7-39.9-0.7-25.4 0.8-58.5 6-71.2a5 5 0 0 1 9.3 3.8c-3.9 9.4-6.1 38.3-5.3 67.1 1.2 42 7.6 54.7 10 56.1 13.4 7.8 9 20.9 5.8 30.4-1.6 4.8-3.3 9.7-2.7 13.2 0.3 1.8 1.4 2.6 5.3 4.7 9.2 4.9 17.6 11.6 9.9 35.4-3.8 11.8-14 21.1-29.4 26.8-12.3 4.6-27.1 6.5-39.7 6.5z m-37.9-45zM817.7 795.9h-1.4c-16.5-0.2-40.1-4.7-58.9-24.7-11.6-12.3-0.3-25.4 7.1-34.1 4.2-4.9 9.4-10.9 7.8-13.4a5 5 0 0 1 8.3-5.6c5.9 8.8-1.8 17.7-8.5 25.5-9.5 11-12 15.8-7.4 20.7 6.8 7.3 32.6 30.1 77.7 18.3 17.1-4.5 25.6-11.4 26.5-13.8a51.8 51.8 0 0 0-3.2-7.6c-3.8-7.7-5.5-13.3 4.8-22.4l0.7-0.7-0.3-0.3c-4-4.3-11.4-12.4-1.8-35.7 13.9-33.5 21.8-139.8-0.3-244.6a5 5 0 0 1 9.8-2.1c12.9 61.1 14.6 116.3 13.8 151.9-1 43-6.2 79.8-14 98.6s-3.1 21.8-0.1 25.1 3.7 4 3.5 7.5-2.6 6-4.7 7.8c-5.3 4.6-5.1 5.1-2.5 10.4a59.7 59.7 0 0 1 3.9 9.4c1.2 4 0.1 10.3-12.2 17.5-10 6.1-28 12.3-48.6 12.3z m54.4-56.6zM294.5 504.3a5 5 0 0 1-2.2-9.5c0.9-0.4 94.8-45.4 198.6-89.7 139.8-59.8 230-90.1 268.3-90.1a5 5 0 0 1 0 10c-88.4 0-458.8 177-462.5 178.8a5 5 0 0 1-2.2 0.5z" fill="#3D3D3D" p-id="2214"></path><path d="M280.1 688.8a5 5 0 0 1-3.7-8.4C293 662.2 414.1 601 519.6 551.9c107.6-50.1 236-105 273.5-108.6a5 5 0 1 1 1 10c-36.3 3.6-168.3 60.3-270.2 107.7C400 618.6 296.8 672.9 283.8 687.2a5 5 0 0 1-3.7 1.6zM421.2 927H415c-41.1-0.1-88.4-1.8-112.9-2.7a9.4 9.4 0 0 1-2.9-18.2l124.1-45.5c-1.7-6.4-1.1-10.5 0.2-13.5l-0.7-0.2c-4.1-1.1-11.7-3.2-12-11.7-0.1-3.8 1.5-7.4 3-10.6 0.8-1.7 2.2-4.8 2-5.7a4.2 4.2 0 0 0-1.8-1c-4-1.5-4.8-4.2-4.9-5.7s0.4-4.6 4.2-7c9.5-5.9 46.3-11.9 71.5 3.8 12.5 7.8 16.9 12.6 16.2 17.9s-6.5 7.1-10.7 8.3a31.5 31.5 0 0 0-3.8 1.2c-0.3 1 0.2 2 3.4 5.9l3.1 4a8 8 0 0 1 1.5 6.7c-1.1 4.7-6.1 7.4-11 10a43.8 43.8 0 0 0-5.4 3.2c1 2.6 4.1 8.5 6.6 13.3 6.4 12.3 13.6 26.2 14.9 35.1a6.3 6.3 0 0 1-1.6 5.2c-2.6 2.6-6.7 7.2-76.8 7.2z m-115.7-12.7c119.1 4.5 172.4 2.4 183.6-1-2-7.6-8.5-20-13.3-29.3s-7.3-14-7.8-17c-1.3-6.5 5.5-10.1 10.9-12.9a50.2 50.2 0 0 0 5.3-3l-2-2.5c-3.6-4.5-7.7-9.7-4.4-16.9 1.7-3.7 5.9-4.9 9.9-6.1l2.3-0.7c-1.4-1.4-4.4-3.8-10.3-7.4-19-11.8-45.6-9-56.6-5.6a10 10 0 0 1 2.2 3.3c1.9 4.8-0.3 9.5-2.2 13.7-1 2.2-2.2 4.6-2.1 6s0.3 1.3 4.7 2.5c2.6 0.7 5.3 1.5 7.4 3.4s4.2 4.7 0.5 9.4c-0.9 1.1-2.4 3.1 0.8 11.8a5 5 0 0 1-3 6.4zM680 927c-70.1 0-74.2-4.6-76.7-7.3a6.3 6.3 0 0 1-1.6-5.2c1.3-8.8 8.5-22.8 14.9-35.1 2.5-4.8 5.6-10.7 6.6-13.3a43.8 43.8 0 0 0-5.4-3.2c-4.9-2.6-9.9-5.2-11-10a8 8 0 0 1 1.5-6.7l3.1-4c3.1-3.9 3.6-4.9 3.4-5.9a31.4 31.4 0 0 0-3.8-1.2c-4.2-1.2-10-2.9-10.7-8.3s3.6-10.1 16.2-17.9c25.2-15.7 62-9.7 71.5-3.8 3.8 2.4 4.4 5.1 4.2 7s-1 4.2-4.9 5.7a4.1 4.1 0 0 0-1.8 1c-0.2 0.9 1.2 4 2 5.7 1.5 3.2 3.2 6.8 3 10.6-0.3 8.5-7.9 10.6-12 11.7l-0.7 0.2c1.4 3 1.9 7.1 0.2 13.5L802 906a9.4 9.4 0 0 1-2.9 18.2c-24.5 1-71.8 2.6-112.9 2.7z m-67.8-13.6c11.2 3.4 64.5 5.5 183.6 1L670 868.2a5 5 0 0 1-3-6.4c3.2-8.7 1.7-10.7 0.8-11.8-3.7-4.7-0.9-8.2 0.5-9.4s4.8-2.7 7.4-3.4c4.4-1.2 4.7-1.7 4.7-2.5s-1.1-3.8-2.1-6c-1.9-4.2-4.1-8.9-2.2-13.7a10 10 0 0 1 2.2-3.3c-11-3.3-37.7-6.2-56.6 5.6-5.9 3.7-8.8 6-10.3 7.4l2.3 0.7c4 1.1 8.1 2.3 9.9 6.1 3.3 7.2-0.8 12.4-4.4 16.9l-2 2.5a50.2 50.2 0 0 0 5.3 3c5.4 2.9 12.1 6.4 10.9 12.9-0.6 3-3.1 7.9-7.8 17s-11.4 21.9-13.5 29.6z m186.5 2zM215.3 851.8h-13.2a5 5 0 0 1-5-5v-13.2a5 5 0 0 0-5-5 5 5 0 0 0-5 5v13.2a5 5 0 0 1-5 5h-13.3a5 5 0 0 0-5 5 5 5 0 0 0 5 5H182a5 5 0 0 1 5 5V880a5 5 0 0 0 5 5 5 5 0 0 0 5-5v-13.1a5 5 0 0 1 5-5h13.2a5 5 0 0 0 5-5 5 5 0 0 0-4.9-5.1zM892.1 136.2h-17.9a6.8 6.8 0 0 1-6.8-6.8v-17.8a6.8 6.8 0 0 0-6.8-6.8 6.8 6.8 0 0 0-6.8 6.8v17.8a6.8 6.8 0 0 1-6.8 6.8h-17.7a6.8 6.8 0 0 0-6.8 6.8 6.8 6.8 0 0 0 6.8 6.8h17.8a6.8 6.8 0 0 1 6.8 6.8v17.8a6.8 6.8 0 0 0 6.8 6.8 6.8 6.8 0 0 0 6.8-6.8v-17.9a6.8 6.8 0 0 1 6.8-6.8h17.8a6.8 6.8 0 0 0 6.8-6.8 6.8 6.8 0 0 0-6.8-6.7z" fill="#3D3D3D" p-id="2215"></path><path d="M349.2 545.4c-16 22.5-6.7 59.7 6.6 57.2s108.2-54.9 122-67.5 24.2-47 19.6-58.6-139.9 57.3-148.2 68.9zM525.9 460.4c-16 22.5-6.7 59.7 6.6 57.2s108.2-54.9 122-67.5 24.2-47 19.6-58.6-140 57.3-148.2 68.9z" fill="#ABD195" p-id="2216"></path><path d="M367 895.6c19-7.6 58.6-24.5 67.5-21.4s27.9 16.9 8.9 21.4-89.3 5.2-76.4 0z" fill="#FFEBBD" p-id="2217"></path><path d="M575.4 225.4c-72.7 60.2-196.4-47.2-207.9 0s12.8 111.2 1.6 129.1-36.6 134 58.2 61.8 148-141.1 213.5-159.3-22.4-67.1-65.4-31.6z" fill="#777777" p-id="2218"></path><path d="M498.5 259.5c-44-3.4-74.6-30.8-100.5-23.8s-10.5 56.6-8.7 87.2 72.6-3.9 92.9-24.1 38.7-37.5 16.3-39.3z" fill="#A0A0A0" p-id="2219"></path><path d="M220.3 335c-26.4 45.6-54.7 120.2-28.3 156s50.6-58.5 57.3-91-0.7-113.8-29-65z" fill="#777777" p-id="2220"></path></svg>